<mxfile host="app.diagrams.net" modified="2022-04-15T09:01:06.974Z" agent="5.0 (Windows NT 10.0; Win64; x64) AppleWebKit/537.36 (KHTML, like Gecko) Chrome/100.0.4896.88 Safari/537.36" etag="3oh5Zv_nh_YYwapDalYu" version="17.4.4" type="github">
  <diagram id="H_l5TwUQKEGQv2M3ZErB" name="Page-1">
    <mxGraphModel dx="1038" dy="588" grid="1" gridSize="10" guides="1" tooltips="1" connect="1" arrows="1" fold="1" page="1" pageScale="1" pageWidth="827" pageHeight="1169" math="0" shadow="0">
      <root>
        <mxCell id="0" />
        <mxCell id="1" parent="0" />
      </root>
    </mxGraphModel>
  </diagram>
</mxfile>
